<svg width="50" height="50" viewBox="0 0 300 300" fill="none" xmlns="http://www.w3.org/2000/svg">
<circle cx="150" cy="150" r="150" fill="#D00F0F"/>
<circle cx="150" cy="150" r="150" fill="url(#paint0_linear)"/>
<path d="M232.212 144.513C205.459 113.275 177.117 97 150.099 97C123.082 97 94.7395 113.275 67.9866 144.513C65.3378 147.4 65.3378 151.862 67.9866 154.75C94.7395 185.725 123.082 202 150.099 202C177.117 202 205.459 185.725 232.212 154.488C234.596 151.6 234.596 147.4 232.212 144.513ZM150.099 191.5C127.055 191.5 101.361 176.537 77.5223 149.5C101.361 122.462 127.055 107.5 150.099 107.5C173.144 107.5 198.837 122.462 222.676 149.5C198.837 176.537 173.144 191.5 150.099 191.5Z" fill="white"/>
<path d="M150.5 118C133.175 118 119 132.175 119 149.5C119 166.825 133.175 181 150.5 181C167.825 181 182 166.825 182 149.5C182 132.175 167.825 118 150.5 118ZM150.5 170.5C138.95 170.5 129.5 161.05 129.5 149.5C129.5 137.95 138.95 128.5 150.5 128.5C162.05 128.5 171.5 137.95 171.5 149.5C171.5 161.05 162.05 170.5 150.5 170.5Z" fill="white"/>
<defs>
<linearGradient id="paint0_linear" x1="150" y1="0" x2="150" y2="300" gradientUnits="userSpaceOnUse">
<stop stop-color="#B300FF"/>
<stop offset="1" stop-color="white" stop-opacity="0"/>
</linearGradient>
</defs>
</svg>
